<?xml version="1.0" standalone="no"?>
<!DOCTYPE svg PUBLIC "-//W3C//DTD SVG 20010904//EN"
 "http://www.w3.org/TR/2001/REC-SVG-20010904/DTD/svg10.dtd">
<svg version="1.0" xmlns="http://www.w3.org/2000/svg"
 width="225.000000pt" height="225.000000pt" viewBox="0 0 225.000000 225.000000"
 preserveAspectRatio="xMidYMid meet">

<g transform="translate(0.000000,225.000000) scale(0.100000,-0.100000)"
fill="#000000" stroke="none">
<path d="M600 1433 c0 -5 39 -7 86 -5 l86 4 -7 -53 c-9 -62 10 -61 20 2 5 30
3 44 -6 50 -17 11 -179 12 -179 2z"/>
<path d="M634 1404 c3 -9 6 -20 6 -26 0 -6 6 -6 15 2 12 10 15 9 15 -6 -1 -54
-10 -64 -61 -64 -27 0 -49 -2 -49 -4 0 -2 -11 -58 -25 -126 -14 -68 -25 -127
-25 -131 0 -5 44 -9 98 -9 61 0 92 4 83 9 -12 8 -9 37 21 185 19 97 32 178 30
181 -3 3 -30 5 -60 5 -45 0 -53 -3 -48 -16z m16 -136 c0 -12 -22 -126 -35
-185 -5 -22 -35 -33 -35 -14 0 5 9 53 20 106 11 53 20 99 20 101 0 2 7 4 15 4
8 0 15 -6 15 -12z"/>
<path d="M1494 1404 c3 -9 6 -20 6 -26 0 -6 6 -6 15 2 21 17 20 12 -15 -170
-16 -85 -30 -158 -30 -162 0 -5 21 -8 46 -8 37 0 44 3 35 13 -8 10 -2 58 23
183 18 93 32 172 29 177 -2 4 -29 7 -60 7 -46 0 -54 -3 -49 -16z"/>
<path d="M1726 1389 c-9 -45 -8 -65 3 -53 14 14 23 71 13 78 -5 3 -12 -8 -16
-25z"/>
<path d="M391 1384 c-17 -14 -41 -40 -53 -57 -12 -18 0 -10 28 21 l50 52 76 0
76 0 -8 -35 c-6 -26 -5 -35 5 -35 15 0 30 54 20 70 -3 5 -42 10 -85 10 -70 0
-82 -3 -109 -26z"/>
<path d="M1630 1369 c0 -28 2 -30 33 -27 27 2 33 8 35 31 3 25 1 27 -32 27
-33 0 -36 -2 -36 -31z"/>
<path d="M386 1340 c-45 -49 -96 -138 -96 -171 0 -21 -111 -50 -118 -31 -2 7
-13 12 -24 12 -39 0 -11 -25 45 -38 48 -12 56 -17 60 -40 3 -21 4 -19 6 10 1
31 -3 37 -21 41 -17 3 -14 5 10 6 l32 1 0 -60 c0 -36 8 -81 20 -112 23 -62 23
-61 8 -52 -7 5 -8 3 -3 -7 24 -40 53 -73 97 -109 l48 -41 -36 70 c-22 44 -37
91 -41 125 l-6 56 194 1 c107 1 183 4 169 9 -14 4 -104 8 -200 9 -96 1 -177 4
-180 7 -3 3 7 15 23 26 34 25 36 58 3 58 -20 0 -24 -6 -29 -42 -7 -55 6 -162
26 -210 9 -21 12 -38 7 -38 -12 0 -25 21 -27 45 -1 11 -6 38 -12 60 -13 48
-14 175 -2 193 6 9 19 11 45 7 40 -8 46 -26 20 -63 -15 -22 -15 -22 30 -22 25
0 46 3 46 8 1 4 16 82 34 175 l33 167 -57 0 c-56 0 -58 -1 -104 -50z m69 -66
c-23 -115 -28 -124 -70 -124 -41 0 -42 8 -14 69 19 44 90 144 96 137 2 -1 -4
-38 -12 -82z m-114 -396 c11 -21 11 -22 -4 -9 -10 7 -17 17 -17 22 0 15 9 10
21 -13z"/>
<path d="M420 1277 c-14 -22 -50 -96 -50 -103 0 -2 10 -4 23 -4 21 0 25 7 35
62 6 34 10 63 9 64 -2 2 -9 -7 -17 -19z"/>
<path d="M630 1340 c0 -5 5 -10 11 -10 5 0 7 5 4 10 -3 6 -8 10 -11 10 -2 0
-4 -4 -4 -10z"/>
<path d="M1880 1316 c27 -14 40 -12 40 7 0 8 -3 8 -9 -2 -6 -9 -11 -10 -15 -2
-4 6 -15 11 -24 11 -12 0 -10 -4 8 -14z"/>
<path d="M2113 1323 c3 -5 -2 -37 -9 -73 -8 -36 -16 -79 -18 -95 -1 -17 -11
-54 -20 -83 l-18 -52 -91 0 c-51 0 -149 -3 -219 -7 -128 -6 -128 -6 -122 -30
6 -21 3 -23 -35 -23 -36 0 -41 -3 -47 -27 -13 -62 -14 -63 -50 -63 -19 0 -34
-5 -34 -11 0 -6 17 -9 42 -7 41 3 43 4 51 46 8 41 9 42 48 42 37 0 39 2 39 30
l0 30 222 2 221 3 22 75 c26 89 49 226 40 240 -3 5 -11 10 -16 10 -6 0 -8 -3
-6 -7z"/>
<path d="M747 1286 c3 -13 -5 -70 -16 -126 -12 -57 -21 -107 -21 -112 0 -5 14
-8 32 -6 31 3 33 5 45 68 31 158 35 170 47 170 8 0 19 -7 27 -16 11 -14 14
-13 25 8 8 13 13 26 14 31 0 4 -35 7 -79 7 -77 0 -78 0 -74 -24z"/>
<path d="M897 1219 c-10 -50 -20 -95 -23 -100 -3 -5 -16 -9 -30 -9 -14 0 -22
-4 -19 -10 3 -5 15 -10 27 -10 16 0 19 -5 16 -25 -5 -25 -5 -25 73 -25 83 0
83 0 93 43 l7 29 -34 -26 c-39 -30 -67 -34 -67 -8 1 10 17 25 43 37 47 22 80
78 91 153 l6 42 -83 0 -83 0 -17 -91z m106 24 c-3 -21 -12 -53 -19 -70 -16
-39 -39 -45 -30 -8 4 14 9 45 13 70 4 34 10 45 24 45 15 0 17 -6 12 -37z"/>
<path d="M1095 1300 c5 -8 -25 -186 -41 -242 -4 -15 1 -18 30 -18 39 0 32 -16
69 170 11 55 16 66 35 68 26 4 27 13 -2 -125 l-23 -113 41 0 41 0 2 48 c1 26
8 80 16 120 20 96 14 102 -94 102 -51 0 -78 -4 -74 -10z"/>
<path d="M1304 1294 c3 -9 6 -21 6 -27 0 -8 4 -7 12 1 16 16 88 16 88 0 -1 -7
-19 -22 -42 -33 -54 -26 -74 -55 -92 -132 l-14 -63 100 0 c79 0 98 3 90 13 -9
11 8 131 33 235 5 22 4 22 -91 22 -84 0 -95 -2 -90 -16z m85 -153 c-12 -64
-16 -71 -36 -71 -20 0 -23 4 -17 28 14 60 50 129 61 118 3 -2 -1 -36 -8 -75z"/>
<path d="M1616 1293 c-6 -23 -46 -231 -46 -244 0 -14 60 -11 65 4 3 6 15 67
28 135 l24 122 -33 0 c-22 0 -34 -5 -38 -17z"/>
<path d="M1714 1295 c4 -13 -15 -131 -39 -232 -5 -20 -2 -23 29 -23 33 0 35 2
45 50 6 28 16 82 22 120 11 64 14 70 35 70 29 0 29 11 0 -127 l-23 -113 127 0
128 0 11 31 c15 44 15 44 -23 15 -34 -25 -57 -32 -69 -20 -9 9 4 34 18 34 7 0
28 11 48 24 19 13 37 23 39 21 2 -2 4 4 5 13 1 9 6 37 12 62 25 101 32 90 -62
90 l-83 0 -20 -97 c-15 -72 -24 -99 -36 -101 -15 -3 -15 2 -3 55 19 79 19 129
-1 137 -9 3 -49 6 -91 6 -63 0 -74 -2 -69 -15z m310 -42 c-18 -81 -26 -102
-40 -107 -14 -5 -16 -1 -10 26 4 18 9 50 13 71 4 27 10 37 24 37 16 0 18 -5
13 -27z m-136 -180 c-5 -25 -28 -28 -28 -4 0 12 6 21 16 21 9 0 14 -7 12 -17z"/>
<path d="M295 1259 c-9 -17 -15 -33 -13 -35 3 -2 12 12 21 31 21 43 13 47 -8
4z"/>
<path d="M270 1196 c0 -9 -10 -21 -22 -26 l-23 -9 22 0 c21 -1 42 33 29 46 -3
4 -6 -1 -6 -11z"/>
<path d="M188 1153 c6 -2 18 -2 25 0 6 3 1 5 -13 5 -14 0 -19 -2 -12 -5z"/>
<path d="M261 1014 c0 -11 3 -14 6 -6 3 7 2 16 -1 19 -3 4 -6 -2 -5 -13z"/>
<path d="M1544 994 c3 -9 6 -18 6 -20 0 -2 14 -4 31 -4 24 0 30 3 25 16 -3 9
-6 19 -6 22 0 4 -5 0 -10 -8 -6 -10 -10 -11 -10 -2 0 6 -9 12 -21 12 -15 0
-19 -4 -15 -16z"/>
<path d="M271 974 c0 -11 3 -14 6 -6 3 7 2 16 -1 19 -3 4 -6 -2 -5 -13z"/>
<path d="M765 958 c-4 -18 -9 -41 -11 -50 -4 -13 0 -18 15 -18 12 0 21 7 21
15 0 26 28 28 56 6 15 -12 38 -21 53 -21 l25 0 -23 17 -24 16 21 8 c15 6 22
17 22 34 0 24 -1 25 -74 25 l-74 0 -7 -32z m125 2 c0 -5 -20 -10 -45 -10 -25
0 -45 5 -45 10 0 6 20 10 45 10 25 0 45 -4 45 -10z"/>
<path d="M956 968 c-3 -13 -6 -35 -6 -50 l0 -28 75 0 c72 0 76 1 85 26 6 14
10 36 10 50 0 33 -28 31 -36 -3 -11 -52 -12 -53 -59 -53 -44 0 -45 1 -39 28 3
15 7 33 10 40 2 6 -5 12 -15 12 -11 0 -21 -9 -25 -22z"/>
<path d="M1155 970 c-10 -32 3 -40 61 -40 34 0 54 -4 54 -11 0 -8 -20 -10 -65
-7 -52 5 -65 3 -65 -9 0 -11 16 -13 78 -11 76 3 77 3 80 31 3 27 2 27 -52 27
-35 0 -56 4 -56 11 0 8 19 10 60 6 47 -4 60 -2 60 9 0 11 -17 14 -74 14 -66 0
-75 -2 -81 -20z"/>
<path d="M1347 983 c-3 -5 -8 -27 -12 -50 -6 -39 -5 -43 14 -43 14 0 21 6 21
20 0 17 7 20 50 20 43 0 50 -3 50 -20 0 -25 27 -27 34 -2 18 65 18 82 -2 82
-11 0 -22 -9 -25 -20 -4 -16 -14 -20 -51 -20 -39 0 -46 3 -46 20 0 19 -24 28
-33 13z"/>
<path d="M1390 890 c0 -19 -7 -20 -127 -20 -86 0 -123 -3 -113 -10 8 -5 68 -9
133 -9 109 0 117 1 117 20 0 12 7 19 20 19 11 0 20 5 20 10 0 6 -11 10 -25 10
-18 0 -25 -5 -25 -20z"/>
<path d="M810 885 c0 -10 -11 -15 -35 -15 -19 0 -35 -4 -35 -10 0 -5 18 -10
40 -10 22 0 40 4 40 9 0 5 3 16 6 25 3 9 1 16 -5 16 -6 0 -11 -7 -11 -15z"/>
<path d="M985 870 c-71 -3 -125 -8 -120 -12 13 -8 228 -10 250 -2 15 6 22 26
8 22 -5 -1 -66 -5 -138 -8z"/>
</g>
</svg>
