<?xml version="1.0" standalone="no"?>
<!DOCTYPE svg PUBLIC "-//W3C//DTD SVG 20010904//EN"
 "http://www.w3.org/TR/2001/REC-SVG-20010904/DTD/svg10.dtd">
<svg version="1.0" xmlns="http://www.w3.org/2000/svg"
 width="6062.000000pt" height="6062.000000pt" viewBox="0 0 6062.000000 6062.000000"
 preserveAspectRatio="xMidYMid meet">

<g transform="translate(0.000000,6062.000000) scale(0.100000,-0.100000)"
fill="#000000" stroke="none">
<path d="M0 30310 l0 -30310 30310 0 30310 0 0 30310 0 30310 -30310 0 -30310
0 0 -30310z m30331 23533 c-24 -266 -58 -645 -101 -1143 -17 -195 -40 -445
-50 -555 l-18 -200 205 -875 205 -875 -9 -305 c-11 -421 -9 -515 31 -1260 19
-360 65 -1247 102 -1970 l68 -1315 225 -382 c124 -210 228 -382 231 -382 3 0
34 38 70 85 36 48 122 159 191 248 69 88 205 265 303 391 568 736 534 695 619
750 42 28 268 169 503 315 403 251 429 268 473 326 53 70 257 332 555 714 114
146 249 318 299 383 51 66 170 219 266 340 96 122 199 255 229 295 30 40 57
70 59 68 3 -3 18 -315 34 -694 l29 -690 41 -89 c23 -48 70 -148 105 -222 35
-73 64 -135 64 -136 0 -2 23 -52 51 -111 28 -60 90 -190 136 -289 l85 -180 -6
-220 c-4 -121 -13 -437 -22 -702 l-15 -481 81 -374 c96 -438 94 -306 21 -1108
l-50 -545 119 -475 c66 -262 118 -489 116 -505 -2 -17 -7 -151 -11 -299 -6
-225 -5 -267 6 -260 8 4 341 245 740 534 l726 527 809 673 c445 370 845 704
889 741 44 37 81 66 83 65 2 -3 -62 -166 -432 -1096 l-133 -335 -51 -355 c-28
-195 -55 -407 -61 -470 -35 -379 -85 -900 -107 -1123 l-25 -259 -225 -616
-225 -617 57 -983 58 -983 -68 -417 c-59 -365 -91 -561 -176 -1087 -58 -360
-114 -702 -142 -874 l-32 -194 -125 -60 c-69 -32 -155 -73 -191 -89 -70 -32
-130 -60 -280 -131 -52 -24 -194 -90 -315 -147 -121 -56 -274 -128 -340 -159
l-120 -58 -285 -257 -285 -256 -291 -493 c-161 -270 -291 -493 -290 -494 0 -1
343 63 761 143 418 79 763 144 767 144 7 0 -53 -81 -207 -280 -33 -43 -150
-196 -260 -341 -110 -145 -225 -295 -255 -335 -30 -39 -118 -154 -195 -255
-76 -101 -201 -265 -277 -364 -390 -509 -703 -919 -734 -964 -35 -50 8 -36
-672 -215 l-514 -135 -121 -79 c-67 -43 -233 -151 -368 -240 l-245 -162 -150
-30 c-82 -16 -354 -70 -604 -119 -516 -102 -418 -69 -990 -333 -36 -17 -99
-45 -140 -63 -41 -18 -111 -50 -155 -70 l-80 -38 -175 7 c-96 3 -339 10 -540
16 -201 6 -381 12 -400 14 -19 2 -271 110 -560 239 l-525 235 -295 47 c-162
25 -362 58 -445 71 -82 13 -233 37 -335 54 -768 123 -998 160 -1015 165 -12 3
-150 182 -336 433 l-315 427 -100 62 c-54 35 -194 121 -309 193 -116 71 -224
144 -240 162 -16 18 -68 76 -116 128 -47 52 -162 178 -255 280 -92 102 -278
306 -413 454 -135 147 -253 278 -262 290 -15 20 -14 38 17 271 18 138 54 410
79 605 25 195 50 364 54 375 5 12 85 122 178 245 628 834 691 920 675 920 -9
-1 -126 -22 -259 -48 l-242 -47 -366 -364 -367 -364 -417 12 c-229 7 -419 16
-422 19 -4 4 -35 108 -69 232 -34 124 -90 329 -125 455 -35 127 -126 460 -203
740 l-140 510 -42 460 c-23 253 -57 613 -75 800 l-32 340 79 125 c44 69 154
239 245 378 l165 254 -251 1758 c-138 966 -251 1776 -251 1799 0 23 42 353 94
734 l95 692 -63 260 c-35 143 -98 402 -140 575 l-77 316 44 189 c24 105 48
189 53 188 8 -1 464 -275 1039 -623 l160 -96 200 -265 c660 -872 495 -630
1690 -2472 l128 -197 17 27 c9 16 73 134 142 263 280 523 797 1489 826 1545
23 43 71 208 172 590 l140 531 290 662 289 662 121 377 c67 208 155 482 195
608 41 127 121 377 179 557 l104 328 306 574 306 574 56 623 57 624 310 519
c283 473 315 530 353 640 24 67 213 616 422 1221 209 605 507 1470 663 1923
156 452 285 818 287 812 2 -5 -6 -112 -17 -237z m17889 -28572 c455 -47 784
-133 1085 -283 402 -201 673 -484 891 -932 112 -230 197 -539 224 -813 15
-157 13 -482 -4 -643 -8 -74 -34 -252 -56 -395 -23 -143 -48 -298 -55 -345
-63 -402 -126 -800 -131 -822 l-6 -28 -1264 0 -1264 0 5 23 c21 87 218 1381
222 1457 17 304 -98 471 -342 494 -148 15 -292 -25 -379 -104 -109 -100 -155
-232 -216 -620 -22 -140 -65 -410 -95 -600 -30 -190 -105 -658 -165 -1040
-135 -848 -187 -1179 -205 -1290 -38 -243 -221 -1397 -265 -1670 -28 -173 -95
-598 -150 -945 -55 -346 -107 -670 -115 -720 -25 -144 -30 -355 -12 -453 38
-197 143 -309 323 -343 122 -23 309 8 414 69 119 70 220 214 274 392 14 47 58
278 96 515 90 552 219 1336 275 1674 24 145 42 268 40 272 -3 4 -169 6 -370 6
-342 -2 -365 -1 -365 16 0 9 13 99 30 200 16 100 54 337 85 527 115 709 136
842 185 1141 28 169 50 310 50 313 0 3 725 6 1610 6 l1610 0 0 -20 c0 -12 -56
-377 -126 -813 -69 -436 -159 -1003 -200 -1262 -41 -258 -104 -657 -140 -885
-36 -228 -72 -453 -79 -500 -25 -158 -298 -1883 -491 -3095 -41 -258 -82 -518
-91 -577 l-16 -108 -833 0 -832 0 -6 118 c-22 412 -72 740 -148 955 l-14 39
-49 -74 c-193 -292 -447 -567 -725 -784 -280 -219 -586 -350 -930 -399 -123
-17 -536 -20 -675 -5 -329 37 -597 130 -850 298 -124 82 -323 278 -415 410
-157 223 -285 522 -349 817 -47 216 -56 315 -55 640 0 345 3 377 99 970 17
102 45 285 140 890 36 231 72 461 80 510 8 50 49 308 90 575 42 267 105 670
140 895 35 226 134 858 220 1405 86 547 167 1065 180 1150 14 85 50 313 80
505 82 519 125 724 221 1052 163 558 420 1060 735 1437 124 149 333 323 514
429 367 215 829 342 1371 377 173 11 1062 4 1194 -9z m-39780 -163 c0 -13 -5
-50 -10 -83 -6 -33 -42 -258 -80 -500 -38 -242 -106 -667 -150 -945 -44 -278
-111 -703 -150 -945 -38 -242 -83 -525 -100 -630 -17 -104 -50 -316 -75 -470
-24 -154 -92 -581 -150 -950 -59 -368 -117 -737 -130 -820 -13 -82 -40 -249
-59 -370 -57 -360 -217 -1363 -231 -1455 -27 -176 -116 -736 -165 -1040 -28
-173 -73 -457 -100 -630 -28 -173 -61 -385 -75 -470 -14 -85 -25 -158 -25
-162 0 -5 482 -8 1070 -8 l1070 0 -5 -22 c-3 -13 -23 -138 -45 -278 -22 -140
-83 -527 -136 -860 -53 -333 -102 -645 -110 -695 -7 -49 -35 -227 -62 -395
l-48 -305 -2368 -3 -2368 -2 6 27 c3 16 53 330 112 698 58 369 162 1023 230
1455 69 432 149 940 179 1130 127 800 207 1306 235 1480 16 102 63 399 105
660 41 261 98 619 126 795 28 176 57 358 64 405 12 79 103 652 309 1950 234
1473 281 1773 336 2115 139 877 210 1329 210 1337 0 4 583 8 1295 8 l1295 0 0
-22z m5013 15 c3 -5 -8 -89 -24 -188 -16 -99 -60 -378 -99 -620 -38 -242 -90
-570 -116 -730 -25 -159 -69 -438 -98 -620 l-52 -330 -1291 -2 c-711 -2 -1294
1 -1297 5 -2 4 7 75 20 157 13 83 60 377 104 655 44 278 109 690 145 915 36
226 77 484 91 575 14 91 27 171 29 178 4 9 271 12 1294 12 709 0 1292 -3 1294
-7z m5807 -12 c0 -10 -11 -90 -25 -177 -47 -308 -115 -744 -190 -1224 -145
-929 -165 -1059 -165 -1070 0 -7 -231 -10 -730 -10 l-730 0 -5 -22 c-3 -13
-32 -194 -65 -403 -55 -357 -248 -1580 -520 -3305 -195 -1237 -658 -4177 -770
-4890 -11 -69 -25 -152 -30 -185 -6 -33 -33 -204 -60 -380 -28 -176 -53 -332
-56 -347 l-6 -28 -1294 0 c-712 0 -1294 4 -1294 8 0 5 52 334 115 733 95 602
275 1745 355 2259 11 69 25 152 30 185 6 33 78 490 160 1015 185 1172 675
4281 785 4981 30 191 55 354 55 363 0 15 -66 16 -736 16 l-736 0 6 28 c3 15
24 137 45 272 22 135 76 470 121 745 118 729 156 964 196 1210 19 121 37 226
39 233 4 9 563 12 2755 12 2692 0 2750 0 2750 -19z m6820 1 c0 -10 -14 -106
-30 -213 -35 -219 -124 -793 -205 -1314 -30 -192 -75 -480 -100 -640 -25 -159
-45 -295 -45 -302 0 -10 -236 -13 -1177 -15 l-1177 -3 -101 -640 c-56 -352
-127 -806 -159 -1010 -32 -203 -60 -378 -62 -387 -5 -17 45 -18 946 -18 l950
0 -5 -22 c-3 -13 -28 -167 -55 -343 -28 -176 -91 -576 -141 -890 -132 -836
-135 -853 -168 -1065 -17 -107 -33 -205 -36 -217 l-5 -23 -955 0 -954 0 -6
-32 c-3 -18 -28 -177 -55 -353 -55 -358 -147 -951 -245 -1579 -36 -230 -65
-422 -65 -427 0 -5 528 -9 1220 -9 1155 0 1220 -1 1220 -17 0 -10 -14 -101
-30 -203 -17 -102 -62 -385 -101 -630 -39 -245 -95 -596 -124 -780 -29 -184
-72 -452 -94 -595 -23 -143 -44 -272 -47 -287 l-6 -28 -2520 0 -2520 0 6 28
c3 15 28 171 56 347 27 176 93 590 145 920 93 584 206 1297 325 2050 32 204
136 856 230 1450 189 1188 359 2262 604 3810 41 259 91 571 111 695 19 124 67
425 106 670 39 245 93 585 120 755 27 171 56 353 64 405 8 52 44 280 80 505
36 226 65 413 65 418 0 4 1112 7 2470 7 2374 0 2470 -1 2470 -18z m2904 -14
c3 -18 64 -899 136 -1958 72 -1059 135 -1988 140 -2065 14 -185 63 -902 95
-1395 14 -217 29 -408 33 -423 5 -20 23 71 59 305 29 183 102 646 163 1028
213 1342 312 1970 391 2465 43 275 109 687 145 915 71 451 73 463 133 845 23
143 44 272 47 288 l6 27 1114 0 1114 0 0 -22 c0 -13 -5 -50 -10 -83 -6 -33
-37 -229 -70 -435 -32 -206 -107 -676 -165 -1045 -158 -995 -221 -1393 -349
-2200 -64 -401 -145 -914 -181 -1140 -36 -225 -96 -608 -135 -850 -38 -242
-88 -555 -110 -695 -22 -140 -72 -455 -111 -700 -39 -245 -92 -582 -119 -750
-27 -168 -101 -636 -165 -1040 -64 -404 -152 -960 -196 -1235 -43 -275 -127
-806 -187 -1180 l-107 -680 -1142 -3 -1142 -2 -5 32 c-3 18 -19 202 -36 408
-25 316 -424 5092 -478 5735 -12 131 -21 199 -25 180 -4 -16 -29 -174 -57
-350 -28 -176 -84 -529 -125 -785 -41 -256 -108 -679 -150 -940 -42 -261 -89
-558 -105 -660 -17 -102 -59 -369 -95 -595 -36 -225 -72 -450 -80 -500 -28
-175 -65 -404 -129 -810 -36 -225 -92 -579 -125 -785 -33 -206 -78 -494 -101
-640 -23 -146 -44 -271 -46 -277 -3 -10 -237 -13 -1129 -13 l-1127 0 6 28 c3
15 35 214 71 442 36 228 92 584 124 790 33 206 144 904 246 1550 103 646 231
1456 286 1800 55 344 106 668 114 720 8 52 37 235 64 405 27 171 95 596 150
945 55 349 137 862 181 1140 126 794 191 1203 310 1955 61 385 124 783 140
885 69 425 220 1383 220 1391 0 5 512 9 1255 9 l1254 0 5 -32z m8926 12 c0
-22 -27 -201 -110 -730 -27 -173 -95 -605 -150 -960 -55 -355 -105 -678 -111
-717 l-12 -73 -1175 -2 -1176 -3 -38 -240 c-66 -419 -208 -1322 -243 -1547
-19 -120 -35 -229 -35 -243 l0 -25 946 0 946 0 -6 -23 c-3 -13 -12 -66 -20
-118 -8 -51 -71 -454 -141 -894 -70 -440 -152 -962 -183 -1160 l-57 -360 -958
-3 c-526 -1 -957 -4 -957 -7 0 -3 -47 -310 -106 -683 -154 -994 -264 -1701
-264 -1707 0 -3 551 -5 1225 -5 975 0 1223 -3 1220 -12 -2 -7 -29 -170 -60
-363 -30 -192 -71 -449 -90 -570 -19 -121 -51 -319 -70 -440 -116 -734 -173
-1091 -181 -1127 l-6 -28 -2520 0 -2520 0 6 28 c7 33 20 118 141 882 153 964
216 1365 345 2175 66 418 145 915 175 1105 30 190 98 615 150 945 53 330 134
843 181 1140 47 297 112 707 144 910 33 204 143 899 245 1545 103 646 231
1456 286 1800 55 344 105 666 113 715 8 50 38 236 66 415 28 179 54 342 57
363 l6 37 2468 0 2469 0 0 -20z m4620 -3 c470 -70 819 -246 1091 -551 143
-161 232 -308 299 -496 79 -221 105 -412 97 -715 -6 -223 -7 -229 -102 -810
-30 -187 -76 -466 -101 -620 -107 -656 -130 -773 -191 -975 -184 -611 -506
-1028 -973 -1260 -52 -26 -123 -58 -157 -70 -35 -13 -63 -27 -63 -31 0 -5 4
-9 9 -9 15 0 163 -100 237 -161 326 -266 495 -593 535 -1034 20 -230 18 -246
-171 -1440 -67 -418 -152 -956 -190 -1195 -38 -239 -121 -766 -185 -1170 -92
-582 -118 -764 -122 -875 -7 -165 7 -308 43 -452 17 -69 24 -115 20 -138 l-7
-35 -1289 0 -1288 0 -20 33 c-59 95 -93 273 -93 482 0 189 5 229 122 975 49
316 112 717 139 890 27 173 108 691 180 1150 72 459 136 867 142 905 16 112 6
270 -20 330 -65 142 -156 175 -494 175 -120 0 -218 -1 -218 -3 0 -2 -11 -75
-25 -163 -14 -87 -34 -215 -45 -284 -10 -69 -71 -456 -135 -860 -117 -743
-146 -926 -170 -1080 -16 -105 -175 -1110 -256 -1625 -33 -209 -67 -425 -75
-480 -9 -55 -28 -176 -43 -270 l-26 -170 -1298 -3 -1299 -2 6 27 c3 16 17 98
30 183 24 155 167 1057 291 1835 36 226 90 568 120 760 31 193 87 546 125 785
91 572 168 1061 240 1515 33 204 136 856 230 1450 95 594 178 1118 185 1165
13 81 89 561 265 1670 44 278 109 690 145 915 35 226 85 538 110 695 25 157
57 355 70 440 13 85 40 255 60 378 19 122 35 227 35 233 0 6 668 9 2058 6
1877 -3 2067 -5 2172 -20z m10483 16 c3 -5 8 -902 12 -1996 4 -1093 10 -1986
12 -1984 2 3 286 899 632 1993 l628 1989 1196 3 c737 1 1197 -2 1197 -7 0 -5
-655 -1680 -1456 -3723 l-1456 -3713 -69 -445 c-66 -434 -330 -2141 -470
-3045 -38 -247 -92 -602 -121 -787 l-52 -338 -1303 0 c-1120 0 -1303 2 -1303
14 0 8 9 68 19 133 11 65 63 388 115 718 53 330 143 899 201 1265 109 686 202
1268 305 1920 33 206 66 411 73 455 14 86 26 -64 -178 2115 -19 212 -51 552
-70 755 -58 629 -154 1654 -185 1985 -40 428 -172 1838 -215 2302 -19 208 -35
382 -35 388 0 12 2516 15 2523 3z m-40005 -2809 c4 -3 -5 -61 -183 -1184 -64
-404 -150 -944 -190 -1200 -83 -526 -267 -1680 -355 -2235 -32 -203 -97 -613
-144 -910 -47 -297 -128 -810 -181 -1140 -333 -2100 -405 -2555 -405 -2566 0
-5 -498 -9 -1295 -9 l-1295 0 0 23 c0 12 16 121 35 242 20 121 60 375 90 565
30 190 98 615 150 945 53 330 134 843 181 1140 47 297 112 707 144 910 33 204
122 771 200 1260 77 490 181 1144 231 1455 82 515 180 1136 214 1350 7 47 36
231 65 410 102 642 150 945 150 951 0 6 2582 -1 2588 -7z"/>
<path d="M31425 41063 l-90 -396 -96 -171 c-53 -94 -178 -315 -279 -491 -100
-176 -243 -427 -317 -558 l-135 -237 -430 -1093 c-236 -600 -513 -1307 -616
-1569 -103 -262 -190 -474 -193 -470 -3 4 -85 399 -182 878 l-177 871 -158
289 c-226 412 -305 554 -308 552 -1 -2 -59 -183 -129 -403 l-127 -400 -178
-315 c-98 -173 -253 -448 -345 -610 -92 -162 -254 -448 -360 -635 -106 -187
-268 -473 -360 -635 -172 -303 -237 -439 -950 -2005 l-123 -270 -59 -345 c-33
-190 -58 -347 -57 -349 2 -2 110 99 240 225 219 213 285 281 514 534 47 52
141 155 209 229 l124 136 366 208 c669 381 733 417 741 417 4 0 35 -60 68
-132 34 -73 106 -230 162 -348 56 -118 110 -233 120 -255 10 -22 47 -101 82
-175 105 -221 101 -207 183 -730 l76 -485 156 -305 c86 -168 162 -318 170
-333 8 -16 16 -27 18 -25 1 1 42 210 90 463 l88 460 185 350 c168 318 199 370
344 573 l159 223 126 405 c101 328 133 418 166 472 77 128 381 628 541 893
l161 265 410 1002 c225 550 410 1000 411 999 1 -1 -5 -58 -13 -127 l-15 -125
227 -770 227 -770 173 -261 c95 -144 210 -319 255 -388 46 -70 85 -125 87
-122 2 2 37 172 77 377 l73 374 271 425 270 425 280 760 c228 621 280 773 286
830 3 39 26 313 51 611 l44 541 129 219 c262 445 331 565 324 561 -4 -2 -137
-82 -297 -177 -309 -185 -305 -181 -491 -385 -234 -256 -354 -387 -454 -495
-58 -63 -128 -140 -156 -170 -27 -30 -105 -116 -174 -190 -69 -75 -150 -163
-180 -196 -30 -33 -95 -104 -144 -157 -49 -54 -93 -94 -97 -90 -4 4 -37 107
-73 228 -35 121 -172 582 -304 1025 -132 443 -302 1015 -378 1273 -76 257
-141 467 -144 467 -3 0 -46 -178 -95 -397z"/>
<path d="M40570 23045 c0 -3 -97 -619 -215 -1367 -118 -748 -215 -1369 -215
-1379 0 -18 11 -19 215 -19 293 0 374 20 480 121 115 109 151 207 210 584 24
154 92 582 150 950 98 612 106 679 102 770 -6 128 -27 185 -92 251 -80 81
-107 87 -392 92 -134 2 -243 1 -243 -3z"/>
</g>
</svg>
