<?xml version="1.0" standalone="no"?>
<!DOCTYPE svg PUBLIC "-//W3C//DTD SVG 20010904//EN"
 "http://www.w3.org/TR/2001/REC-SVG-20010904/DTD/svg10.dtd">
<svg version="1.0" xmlns="http://www.w3.org/2000/svg"
 width="900.000000pt" height="965.000000pt" viewBox="0 0 900.000000 965.000000"
 preserveAspectRatio="xMidYMid meet">

<g transform="translate(0.000000,965.000000) scale(0.100000,-0.100000)"
fill="#000000" stroke="none">
<path d="M4397 9639 c-51 -12 -109 -43 -151 -80 -54 -46 -165 -96 -242 -108
-208 -31 -274 -51 -344 -104 -24 -18 -50 -38 -59 -44 -13 -10 -22 -9 -46 3
-58 31 -206 3 -290 -54 -35 -23 -52 -27 -132 -30 l-93 -4 0 -49 c0 -53 -10
-61 -42 -33 -15 14 -47 17 -205 19 -113 1 -199 6 -215 13 -17 7 -37 30 -52 59
-13 26 -50 78 -82 115 -44 53 -61 67 -78 63 -11 -2 -50 -9 -86 -16 -89 -15
-141 -39 -203 -97 -28 -27 -72 -58 -97 -70 -25 -12 -75 -44 -112 -72 -60 -46
-73 -51 -144 -60 -72 -9 -135 -6 -287 16 -37 5 -51 3 -65 -9 -10 -9 -37 -23
-60 -31 -23 -9 -61 -28 -85 -44 -23 -16 -53 -33 -67 -37 -14 -4 -45 -18 -70
-31 -32 -16 -66 -24 -120 -26 -99 -5 -184 -46 -345 -168 l-120 -91 -62 -167
-61 -167 111 -6 c189 -11 354 -10 384 2 78 31 288 5 447 -55 49 -19 88 -26
137 -26 73 0 149 -23 149 -45 0 -8 -11 -22 -24 -32 l-24 -19 15 -85 c8 -46 23
-103 33 -126 21 -48 97 -133 144 -163 23 -14 40 -39 63 -95 l32 -75 -20 -57
c-23 -67 -24 -135 -4 -192 14 -42 14 -43 -41 -193 -43 -119 -59 -180 -74 -282
-11 -72 -31 -167 -46 -211 -20 -59 -27 -101 -27 -160 -1 -94 21 -151 115 -295
104 -159 132 -235 215 -580 40 -168 47 -211 48 -311 1 -64 5 -136 9 -160 5
-34 0 -62 -19 -119 -29 -85 -52 -285 -34 -306 5 -7 35 -29 65 -50 l55 -38 -2
-81 c-1 -44 5 -116 14 -160 9 -44 16 -107 17 -139 0 -54 -4 -66 -50 -137 -27
-42 -63 -110 -79 -151 -26 -67 -33 -76 -82 -105 -30 -18 -57 -34 -60 -35 -13
-6 23 -215 46 -266 14 -29 52 -82 85 -116 l61 -64 -12 -46 c-19 -75 -7 -172
30 -253 33 -70 33 -71 17 -117 -19 -54 -21 -144 -5 -201 6 -22 33 -87 61 -145
48 -103 59 -143 143 -516 8 -33 21 -141 30 -240 29 -328 70 -487 150 -583 25
-29 27 -39 28 -134 2 -102 2 -103 53 -207 28 -58 57 -121 64 -140 8 -19 15
-37 16 -39 3 -3 397 -89 401 -87 0 1 6 75 12 166 7 91 15 199 18 240 4 41 7
118 7 170 0 86 -3 101 -32 164 -20 44 -32 84 -32 112 0 23 -5 55 -11 71 -6 15
-16 82 -23 148 -12 112 -11 131 10 280 28 193 30 320 6 390 -17 48 -17 52 2
95 23 54 32 161 18 213 -9 32 -6 48 20 120 41 109 42 186 5 278 -15 36 -27 82
-27 101 0 19 -12 71 -27 114 -39 116 -37 190 11 324 20 58 55 179 77 270 22
91 57 212 78 270 98 266 93 417 -18 526 -37 37 -37 38 -29 93 5 31 16 63 23
72 24 26 12 178 -19 237 -17 33 18 134 77 220 80 117 102 174 102 272 0 101
-25 166 -97 246 -54 61 -148 278 -148 342 0 22 -9 68 -19 103 -33 109 -44 180
-45 299 -1 109 -3 119 -34 183 -40 80 -38 94 33 193 55 76 95 159 95 195 0 15
7 33 16 40 13 11 15 32 12 129 -4 129 -19 174 -82 243 -31 33 -36 45 -42 111
-8 94 -1 126 29 126 12 0 45 13 74 29 46 25 69 30 202 41 l150 13 -71 141
c-99 197 -98 190 -42 247 49 50 49 52 28 126 -6 23 -6 23 32 7 22 -9 79 -27
129 -39 l90 -23 38 -93 c22 -52 41 -106 44 -121 5 -26 3 -28 -26 -28 l-31 0
-2 -107 c-5 -182 -1 -246 17 -308 22 -77 73 -155 124 -191 22 -16 41 -33 41
-39 0 -5 -9 -39 -21 -75 -29 -94 -34 -198 -14 -300 10 -47 21 -121 25 -165 4
-45 11 -91 15 -103 3 -13 -1 -66 -10 -118 -23 -128 -17 -262 14 -324 13 -25
41 -64 63 -87 l40 -41 -16 -99 c-9 -54 -24 -135 -32 -181 -8 -45 -15 -124 -14
-175 1 -51 -2 -118 -8 -150 -14 -92 7 -184 58 -242 9 -11 40 -97 68 -191 l52
-172 -55 -106 c-30 -58 -55 -113 -55 -121 0 -8 -4 -15 -8 -15 -5 0 -16 -82
-26 -182 -16 -176 -18 -183 -48 -220 -38 -48 -68 -126 -68 -176 0 -48 -71
-216 -106 -253 -26 -27 -26 -30 -22 -141 4 -98 8 -122 34 -178 16 -36 51 -94
77 -129 l48 -64 -12 -91 c-16 -121 -16 -299 -1 -416 7 -52 15 -134 18 -182 5
-76 8 -87 26 -91 15 -4 19 -11 13 -24 -13 -34 -17 -128 -7 -165 7 -27 7 -46
-4 -75 -16 -47 -18 -136 -3 -183 6 -19 15 -73 19 -120 4 -47 15 -114 24 -149
l17 -63 -36 -52 c-58 -84 -68 -154 -40 -274 20 -83 58 -157 111 -214 24 -25
46 -57 49 -70 3 -12 12 -56 20 -96 8 -41 27 -103 41 -139 22 -54 24 -67 13
-74 -8 -5 -17 -9 -21 -9 -5 0 -8 -52 -8 -116 0 -105 -3 -125 -32 -208 -29 -81
-32 -103 -32 -206 -1 -82 6 -152 23 -242 l24 -127 165 -56 c91 -30 168 -53
170 -51 2 3 37 85 77 183 59 143 83 189 121 233 26 30 58 78 71 106 16 37 32
55 53 64 30 12 30 14 30 89 0 42 5 148 10 235 8 126 14 166 29 190 25 41 40
127 34 202 -4 49 0 75 22 135 24 67 26 82 20 161 -6 87 -6 88 32 165 36 73 38
82 38 173 0 88 -3 100 -33 160 -18 36 -53 90 -77 121 -34 45 -46 70 -54 120
-14 78 -14 44 4 304 8 121 12 241 9 267 -5 39 -2 53 16 78 49 69 62 167 35
269 -12 48 -13 77 -3 177 9 101 18 320 19 520 1 32 -7 70 -20 99 -34 78 -29
118 29 205 33 49 50 86 50 106 0 17 17 64 39 105 46 89 59 127 65 199 6 80 39
148 95 197 26 23 64 66 84 95 32 47 40 69 58 173 13 79 18 140 15 180 -8 82
-46 218 -101 366 -26 68 -50 153 -55 189 -4 36 -13 80 -20 98 -11 29 -9 44 8
105 34 114 43 164 44 246 1 69 4 79 30 109 93 107 127 234 98 357 -5 22 -16
84 -25 137 -8 59 -28 130 -48 179 l-33 81 29 81 c26 69 31 98 31 177 1 87 -1
100 -28 147 -16 29 -39 61 -51 73 -22 20 -22 23 -9 67 18 60 17 158 -2 208 -9
22 -16 45 -16 50 0 9 33 97 51 134 5 10 34 13 125 13 115 -1 120 -2 155 -29
20 -16 56 -35 81 -42 25 -7 65 -22 89 -33 37 -18 56 -20 135 -15 50 3 104 10
119 16 45 17 67 0 67 -54 0 -44 0 -45 34 -45 33 0 34 -1 43 -55 7 -39 6 -74
-3 -122 -17 -88 -17 -127 0 -193 16 -60 8 -94 -35 -148 -18 -24 -20 -35 -14
-91 4 -35 13 -84 20 -108 13 -43 13 -44 -18 -76 -18 -18 -63 -51 -102 -72 -38
-21 -71 -38 -72 -39 -1 -1 6 -49 16 -106 21 -124 45 -182 97 -239 35 -40 37
-44 26 -75 -7 -18 -12 -58 -12 -90 0 -31 -9 -84 -21 -119 -25 -74 -22 -154 10
-238 12 -30 21 -76 21 -102 0 -57 31 -122 89 -189 23 -25 48 -66 57 -90 8 -23
23 -57 33 -74 18 -31 18 -34 1 -108 -9 -41 -25 -87 -35 -102 -14 -22 -17 -49
-16 -175 2 -169 11 -211 74 -334 40 -76 42 -86 52 -215 13 -178 8 -340 -11
-340 -17 0 -17 6 -3 -235 10 -169 9 -200 -5 -248 -9 -32 -16 -92 -16 -143 l0
-88 -51 -83 c-81 -132 -88 -232 -25 -369 15 -31 21 -56 15 -60 -5 -3 -9 -44
-8 -90 1 -47 0 -87 -2 -89 -2 -2 -33 -14 -69 -28 l-65 -24 2 -144 c1 -170 15
-238 76 -376 40 -93 42 -100 31 -138 -7 -22 -13 -61 -13 -87 -1 -26 -8 -80
-17 -120 -9 -40 -17 -120 -17 -178 -2 -86 2 -116 20 -165 12 -33 27 -96 33
-140 9 -63 113 -437 127 -454 1 -2 62 18 135 44 l133 48 65 94 c93 134 141
223 136 253 -2 14 -13 61 -25 106 l-22 81 56 94 c30 51 73 141 96 199 25 67
62 137 100 193 34 48 69 112 80 142 23 66 25 164 4 231 -10 32 -17 104 -20
206 l-5 157 33 68 c32 67 32 69 29 203 -3 142 -19 231 -52 288 l-20 32 50 86
c67 117 91 191 97 300 6 101 -9 173 -54 256 -20 36 -24 55 -19 82 5 27 2 45
-15 73 l-21 38 80 170 c126 267 148 334 133 420 -4 22 -1 66 6 100 32 145 -25
309 -177 515 -39 52 -73 105 -77 118 -10 41 15 134 62 229 40 80 44 96 34 115
-10 19 -8 25 19 48 l32 26 -14 90 c-15 101 -33 150 -75 202 -29 37 -29 39 -30
178 -1 77 -8 171 -16 208 l-15 69 29 36 c72 92 108 179 121 290 5 50 18 91 39
132 17 32 33 76 37 97 6 36 11 41 81 76 l75 37 -7 77 c-3 42 -8 95 -11 118 -4
37 1 49 57 135 34 52 68 108 76 126 22 53 16 140 -13 203 -22 46 -26 71 -28
155 -2 74 -8 114 -24 155 -11 30 -28 84 -37 120 -34 137 -35 140 -53 140 -12
0 -21 13 -29 43 -17 61 -52 108 -108 144 -53 34 -55 35 -143 129 -65 70 -133
101 -238 111 l-63 6 -11 51 c-5 28 -18 90 -28 138 l-17 87 -168 -97 c-92 -53
-195 -119 -228 -147 -33 -27 -67 -53 -74 -58 -7 -4 -67 -10 -133 -14 l-120 -6
-12 -86 c-6 -47 -18 -105 -26 -127 -14 -39 -17 -42 -64 -47 -27 -3 -74 -18
-104 -32 l-55 -26 -35 39 c-30 33 -128 92 -153 92 -5 0 -16 21 -25 48 -32 89
-109 158 -229 203 -30 12 -80 45 -119 80 -64 57 -142 97 -216 113 -29 6 -33
13 -55 89 l-24 82 -125 2 c-69 1 -142 -3 -163 -8z m128 -274 c22 -59 60 -86
167 -119 77 -23 96 -34 160 -91 55 -49 89 -70 136 -86 67 -22 122 -61 122 -86
0 -8 -9 -26 -20 -40 -28 -36 -26 -77 6 -98 14 -9 67 -23 118 -31 75 -12 95
-19 114 -40 l23 -26 -36 -25 c-20 -14 -66 -32 -103 -41 -61 -16 -70 -22 -110
-72 -25 -30 -55 -59 -68 -64 -22 -9 -24 -15 -24 -83 l0 -73 -57 -55 c-32 -30
-61 -55 -66 -55 -16 0 -47 -67 -47 -103 0 -32 -7 -44 -42 -76 l-41 -38 17 -68
c9 -37 23 -84 31 -103 22 -50 18 -92 -11 -157 -34 -73 -26 -105 51 -197 67
-82 69 -98 19 -234 -42 -116 -41 -131 12 -268 32 -80 55 -188 71 -324 7 -60
-9 -90 -82 -160 -65 -62 -86 -102 -68 -131 32 -52 17 -195 -36 -340 l-29 -79
25 -69 c14 -37 27 -91 29 -118 1 -28 23 -101 47 -165 25 -63 59 -166 77 -229
l33 -115 -13 -100 -13 -101 -73 -75 c-92 -96 -154 -213 -154 -292 0 -71 -13
-113 -55 -174 -23 -33 -37 -67 -41 -100 -4 -32 -20 -70 -45 -109 -53 -83 -69
-126 -69 -184 0 -28 -5 -62 -12 -76 -9 -21 -8 -32 5 -61 10 -19 15 -40 12 -45
-4 -5 3 -9 14 -9 33 0 38 -44 11 -104 -12 -28 -22 -58 -22 -66 0 -8 -4 -27
-10 -42 -8 -23 -6 -32 16 -61 32 -42 34 -96 6 -160 -18 -39 -18 -49 -7 -76 10
-24 11 -45 4 -87 -8 -40 -7 -71 2 -117 28 -133 28 -132 -23 -187 -25 -27 -46
-51 -46 -54 0 -3 7 -35 16 -72 15 -66 15 -77 -1 -374 -2 -41 -13 -106 -24
-145 -27 -89 -26 -99 2 -112 20 -9 25 -21 30 -73 6 -55 13 -69 57 -125 115
-144 125 -194 59 -296 l-41 -63 6 -116 c7 -114 6 -116 -24 -179 -30 -63 -30
-64 -19 -149 l11 -86 -27 -22 c-31 -25 -32 -27 -44 -282 -8 -158 -10 -175 -29
-188 -11 -8 -23 -28 -26 -44 -3 -17 -9 -43 -12 -59 -3 -16 -32 -60 -65 -97
-54 -62 -89 -132 -89 -181 0 -7 -9 -13 -20 -13 -45 0 -40 180 9 305 23 59 31
96 31 143 0 46 4 64 15 68 12 5 15 31 15 149 0 133 -1 144 -19 150 -15 4 -24
27 -40 94 -12 49 -21 104 -21 124 0 19 -7 40 -15 47 -8 7 -15 22 -15 33 0 11
-24 44 -55 74 -41 40 -58 67 -70 105 -23 77 -19 91 35 166 56 77 73 129 47
144 -10 5 -17 21 -17 36 0 15 -7 52 -16 82 -9 30 -19 93 -24 140 -4 47 -12
100 -18 117 -9 29 -7 40 19 88 34 65 35 74 9 117 -24 39 -25 67 -5 132 29 96
16 200 -29 238 -51 41 -58 428 -11 584 9 29 10 46 3 50 -6 4 -19 27 -31 53
-11 25 -37 66 -57 91 -44 53 -75 111 -84 159 -5 26 2 50 33 115 73 155 90 201
94 261 4 55 7 62 48 98 l43 38 12 121 c8 71 18 124 25 128 7 5 14 46 17 106 4
95 7 103 58 204 76 150 76 155 15 358 -29 97 -51 190 -51 216 0 41 -4 48 -40
77 -51 41 -55 59 -36 142 12 52 13 78 5 123 -7 39 -7 70 0 98 5 23 15 73 20
111 6 39 21 123 33 187 28 151 21 179 -58 240 -77 60 -82 84 -55 237 23 133
27 212 10 242 -7 15 -7 24 2 35 9 11 5 34 -20 108 -42 129 -42 191 4 336 47
149 46 182 -4 229 -21 20 -60 50 -87 66 -57 35 -74 65 -81 145 l-6 59 39 3
c43 3 40 -9 32 123 -2 28 1 96 6 152 8 95 7 103 -10 109 -11 4 -27 14 -37 22
-17 15 -16 16 15 26 45 15 48 45 8 74 -16 12 -55 58 -86 102 -63 90 -113 136
-164 150 -53 15 -68 12 -77 -15 l-8 -25 -105 37 c-132 47 -205 49 -327 9 -110
-36 -111 -40 -59 -178 l25 -67 -22 -18 c-50 -39 -75 -108 -54 -148 6 -11 16
-46 22 -77 12 -55 11 -58 -9 -64 -11 -4 -34 -17 -49 -30 -16 -14 -42 -24 -59
-24 -59 0 -117 -52 -169 -150 -25 -48 -28 -94 -18 -330 3 -71 0 -112 -8 -126
-11 -19 -10 -23 10 -28 12 -3 44 -6 71 -6 l48 0 -5 -62 c-11 -121 -24 -158
-95 -263 -72 -107 -75 -115 -98 -300 -6 -50 -5 -50 36 -84 l43 -34 -6 -85 c-4
-47 -10 -88 -14 -91 -4 -3 -8 -38 -8 -76 0 -66 3 -74 43 -134 23 -35 42 -71
43 -80 2 -81 14 -125 68 -252 65 -155 74 -169 139 -249 65 -80 60 -110 -43
-261 -31 -46 -57 -97 -65 -127 -6 -29 -25 -70 -42 -93 -17 -23 -36 -56 -43
-74 -13 -30 -12 -32 22 -59 47 -38 67 -87 54 -129 -17 -52 -41 -206 -41 -261
0 -56 8 -68 94 -131 l39 -28 -5 -61 c-3 -35 -27 -124 -56 -211 -28 -83 -63
-204 -78 -270 -14 -66 -46 -178 -69 -250 -74 -222 -79 -294 -35 -435 12 -36
27 -101 34 -145 8 -44 24 -103 36 -132 l23 -51 -38 -101 c-31 -84 -36 -109
-31 -144 19 -119 19 -121 -13 -196 -37 -88 -38 -103 -6 -163 33 -62 33 -140 1
-353 -23 -154 -23 -165 -10 -294 8 -74 19 -151 24 -170 5 -20 10 -62 10 -94 0
-47 7 -71 36 -127 45 -85 47 -130 10 -201 -32 -63 -33 -80 0 -118 l26 -31 -25
0 c-20 0 -30 12 -57 65 l-33 65 16 60 c29 104 25 117 -64 216 -62 70 -90 178
-114 444 -18 195 -30 287 -50 361 -9 29 -31 126 -51 214 -28 128 -46 183 -91
279 -30 65 -55 133 -56 152 -1 23 10 49 36 87 20 29 37 58 37 63 0 5 -25 52
-55 104 -63 108 -67 141 -35 235 36 104 25 134 -80 219 -39 32 -79 73 -88 92
-16 34 -16 35 11 60 31 29 47 58 81 148 14 36 43 91 64 123 94 139 106 204 76
393 -14 83 -18 152 -16 250 l4 135 -34 17 c-18 8 -48 27 -65 42 -35 29 -35 28
3 148 14 42 25 91 25 110 -1 316 -5 352 -69 611 -92 370 -129 469 -232 622
-99 147 -105 174 -65 282 15 38 34 127 45 203 15 108 30 165 73 285 30 83 60
173 67 201 12 48 12 54 -10 88 -24 40 -24 52 5 156 17 62 13 97 -21 182 -13
32 -24 75 -24 96 0 44 -27 73 -122 135 -32 20 -65 49 -75 63 -14 23 -15 29 -3
47 8 12 24 41 36 64 l21 41 -29 64 c-16 34 -37 79 -46 98 -35 73 -174 139
-317 150 -53 4 -121 18 -166 33 -128 43 -240 60 -369 54 -72 -3 -133 -11 -163
-22 -26 -9 -50 -15 -53 -12 -8 7 108 94 163 122 35 18 72 26 138 30 76 6 97
12 136 36 25 16 54 29 65 29 45 0 95 22 104 45 15 40 67 49 255 47 237 -3 266
5 433 123 45 32 73 45 97 45 28 0 40 7 62 37 41 53 80 93 92 93 6 0 24 -28 41
-63 21 -46 42 -72 74 -95 80 -58 144 -72 334 -74 132 -1 133 -1 152 -28 10
-14 37 -39 59 -54 l41 -28 37 32 c46 40 149 90 203 97 27 4 41 12 45 24 4 11
15 19 26 19 10 0 19 6 19 13 0 11 26 30 94 70 17 10 40 15 51 12 49 -13 169
-24 208 -19 35 5 48 13 67 41 34 49 89 83 152 93 217 35 243 41 327 78 49 22
103 43 120 47 17 4 31 13 31 20 0 25 69 75 104 75 30 0 35 -4 51 -45z m1851
-253 c27 -62 60 -78 184 -86 52 -4 106 -12 119 -19 14 -7 51 -46 82 -87 45
-60 64 -78 99 -90 56 -20 70 -57 41 -110 -11 -19 -22 -51 -26 -71 l-7 -37 65
-21 66 -22 20 -62 c29 -84 27 -120 -9 -172 -16 -24 -30 -48 -30 -54 0 -6 27
-37 61 -70 l61 -59 -50 -73 c-27 -41 -64 -100 -82 -132 -31 -55 -32 -61 -25
-130 l6 -73 -52 -40 c-65 -48 -92 -91 -91 -147 1 -29 -5 -49 -20 -64 -12 -13
-23 -36 -25 -53 -1 -17 -15 -48 -29 -69 -24 -36 -25 -43 -13 -75 18 -49 1 -97
-66 -189 -86 -117 -90 -131 -65 -233 22 -94 26 -139 10 -129 -13 8 -13 -9 1
-115 11 -85 11 -88 -14 -126 -45 -70 -44 -78 15 -109 66 -34 77 -43 99 -79 17
-27 17 -30 -3 -67 -11 -22 -24 -65 -28 -97 -4 -31 -17 -79 -28 -105 -34 -76
-54 -166 -55 -247 0 -116 9 -138 138 -315 86 -119 120 -196 119 -272 0 -50 -5
-68 -22 -86 -27 -29 -28 -46 -1 -91 20 -35 20 -37 4 -88 -10 -29 -54 -129 -98
-223 -134 -284 -147 -333 -103 -374 23 -21 23 -24 10 -66 l-13 -45 45 -54 c55
-68 64 -92 64 -166 0 -77 -26 -144 -100 -260 -54 -84 -60 -99 -60 -147 0 -32
4 -53 11 -53 7 0 9 -9 5 -23 -4 -18 2 -31 24 -52 34 -32 37 -45 45 -180 l6
-100 -41 -68 -41 -68 6 -82 c4 -45 8 -134 10 -197 2 -75 9 -131 20 -160 32
-89 22 -129 -69 -256 -24 -34 -63 -111 -85 -170 -23 -60 -69 -155 -103 -211
-33 -57 -63 -118 -68 -137 -9 -41 -3 -112 16 -186 l13 -55 -38 -55 c-47 -66
-61 -73 -61 -28 0 18 -7 73 -16 122 -8 49 -14 101 -12 115 1 15 -8 44 -20 65
-27 45 -29 117 -7 221 8 38 15 88 15 111 0 22 7 63 15 90 27 89 20 145 -31
258 -45 99 -73 200 -74 262 0 26 6 34 30 44 41 17 87 71 99 117 6 21 11 68 11
104 0 40 6 78 15 95 24 46 18 93 -25 184 -22 47 -40 98 -40 113 0 17 24 65 60
123 l60 95 0 107 c0 59 5 124 11 144 5 21 11 65 12 98 1 37 6 60 13 60 9 0 8
10 -1 37 -21 62 -27 153 -15 228 6 39 14 106 17 150 4 51 12 90 24 110 24 39
24 54 -3 83 -21 21 -23 37 -29 155 l-6 132 -56 113 c-73 146 -80 204 -40 307
4 13 3 16 -5 11 -15 -9 -16 -13 13 96 13 51 31 132 40 181 l16 87 -34 33 c-23
22 -41 54 -57 102 -17 52 -35 82 -72 121 -44 47 -48 55 -48 101 0 33 -9 70
-25 105 -32 68 -32 108 0 138 23 21 24 27 18 99 -5 64 -2 87 17 138 31 87 24
118 -50 197 -88 93 -89 102 -25 159 57 50 166 180 190 227 15 29 15 29 -21 46
-70 34 -80 77 -38 174 31 73 35 125 14 211 -12 49 -12 67 2 135 12 61 13 93 5
141 -9 61 -9 63 24 114 18 29 29 54 24 56 -6 2 -26 11 -45 21 -29 14 -35 23
-38 55 -3 29 -7 37 -23 37 -12 0 -19 7 -19 18 0 14 -18 23 -78 41 -42 12 -103
35 -135 50 l-59 28 -41 -19 c-96 -47 -233 -25 -310 50 l-38 37 -142 3 c-78 1
-153 5 -166 8 -23 5 -22 6 15 34 22 16 67 60 102 99 84 94 104 104 223 105
l96 1 69 48 c76 51 127 71 153 58 11 -6 34 0 71 18 64 31 97 74 135 177 l27
72 48 6 c80 11 113 28 230 124 28 23 55 42 58 42 4 0 16 -22 28 -48z"/>
<path d="M7152 9380 c-18 -11 -40 -37 -48 -57 -41 -96 49 -200 150 -172 99 27
128 150 50 218 -42 38 -101 42 -152 11z m127 -36 c26 -21 31 -33 31 -69 0 -89
-99 -130 -154 -64 -36 43 -35 91 3 130 37 37 79 38 120 3z"/>
<path d="M7170 9275 c0 -58 2 -65 20 -65 14 0 20 7 20 21 0 21 0 21 18 -1 10
-12 26 -21 36 -19 17 4 17 6 -3 30 -17 23 -18 28 -6 33 18 7 20 37 3 54 -7 7
-29 12 -50 12 l-38 0 0 -65z m60 24 c0 -5 -4 -9 -10 -9 -5 0 -10 7 -10 16 0 8
5 12 10 9 6 -3 10 -10 10 -16z"/>
</g>
</svg>
