<?xml version="1.0" standalone="no"?>
<!DOCTYPE svg PUBLIC "-//W3C//DTD SVG 20010904//EN"
 "http://www.w3.org/TR/2001/REC-SVG-20010904/DTD/svg10.dtd">
<svg version="1.0" xmlns="http://www.w3.org/2000/svg"
 width="240.000000pt" height="240.000000pt" viewBox="0 0 240.000000 240.000000"
 preserveAspectRatio="xMidYMid meet">

<g transform="translate(0.000000,240.000000) scale(0.100000,-0.100000)"
fill="#000000" stroke="none">
<path d="M1037 1603 c-4 -3 -7 -44 -7 -90 0 -80 -1 -83 -19 -73 -37 19 -89 12
-122 -18 -83 -74 -20 -229 85 -207 17 3 55 5 84 5 l52 -1 0 195 0 196 -33 0
c-19 0 -37 -3 -40 -7z m-11 -241 c15 -31 7 -60 -22 -79 -22 -14 -26 -14 -49 1
-28 18 -35 72 -13 94 20 20 71 10 84 -16z"/>
<path d="M1790 1415 l0 -195 35 0 35 0 0 195 0 195 -35 0 -35 0 0 -195z"/>
<path d="M1910 1415 l0 -195 40 0 40 0 0 195 0 195 -40 0 -40 0 0 -195z"/>
<path d="M2044 1598 c-3 -5 -2 -8 3 -7 22 4 34 -2 27 -13 -4 -7 -3 -9 1 -5 17
15 13 33 -7 33 -11 0 -22 -4 -24 -8z"/>
<path d="M310 1406 l0 -186 35 0 35 0 0 149 c0 92 4 152 10 156 20 13 71 -7
82 -31 9 -19 8 -28 -7 -44 -10 -11 -26 -20 -37 -20 -15 0 -18 -8 -18 -50 0
-41 7 -60 36 -105 35 -53 39 -55 81 -55 50 0 50 -1 -15 89 l-39 54 38 37 c33
31 39 43 39 78 0 32 -7 49 -29 74 -28 32 -32 33 -120 36 l-91 4 0 -186z"/>
<path d="M1210 1406 l0 -186 105 0 c102 0 106 1 137 29 28 25 33 36 33 76 0
38 -5 51 -27 70 -27 23 -27 25 -13 58 18 43 8 84 -28 111 -21 15 -47 21 -117
24 l-90 4 0 -186z m160 99 c18 -22 2 -55 -31 -62 -24 -4 -29 -10 -29 -34 0
-26 3 -29 32 -29 34 0 68 -24 68 -48 0 -31 -32 -52 -77 -52 l-43 0 0 120 0
120 34 0 c18 0 39 -7 46 -15z"/>
<path d="M643 1445 c-18 -8 -42 -29 -53 -47 -51 -85 7 -188 107 -188 39 0 103
31 103 50 0 18 -49 35 -62 22 -26 -26 -88 -8 -88 25 0 10 21 13 80 13 l80 0 0
28 c0 44 -34 89 -77 101 -47 14 -51 13 -90 -4z m95 -73 c2 -8 -12 -12 -42 -12
-46 0 -53 5 -38 26 18 27 69 18 80 -14z"/>
<path d="M1510 1371 c0 -37 5 -82 11 -100 27 -78 176 -85 214 -10 9 17 15 57
15 104 l0 75 -40 0 -39 0 -3 -76 c-2 -60 -7 -79 -20 -88 -13 -8 -23 -8 -35 0
-14 9 -19 28 -21 88 l-3 76 -39 0 -40 0 0 -69z"/>
<path d="M1272 1031 c-40 -32 -51 -48 -61 -88 -7 -26 -19 -55 -27 -64 -13 -15
-13 -17 2 -23 10 -4 22 -2 27 3 5 5 21 5 40 0 34 -10 51 3 41 34 -4 13 0 17
17 17 18 0 20 -3 11 -12 -22 -22 -13 -46 19 -57 24 -8 36 -8 45 0 22 18 16 29
-13 29 -23 1 -25 2 -11 10 9 6 34 11 55 13 21 1 44 6 52 11 10 6 12 4 7 -11
-8 -25 8 -38 59 -48 22 -4 45 -10 50 -15 16 -12 45 -8 45 8 0 8 -6 12 -14 9
-11 -4 -13 -1 -9 10 4 10 2 14 -7 11 -18 -6 -50 27 -50 51 0 13 8 21 23 23 28
4 35 43 11 69 -16 17 -16 19 -1 19 10 0 17 7 17 15 0 19 -24 19 -40 0 -11 -13
-9 -20 10 -40 21 -23 20 -45 -2 -45 -11 0 -70 27 -182 81 -32 16 -59 29 -61
29 -2 0 -25 -18 -53 -39z m46 -21 c-7 -10 -14 -17 -17 -15 -4 4 18 35 25 35 2
0 -1 -9 -8 -20z m-58 -69 c0 -5 -7 -12 -16 -15 -14 -5 -15 -4 -4 9 14 17 20
19 20 6z"/>
<path d="M710 1050 c0 -6 7 -13 15 -17 14 -5 14 -7 0 -23 -25 -27 -16 -64 16
-68 33 -4 48 -42 19 -49 -10 -3 -21 -11 -24 -19 -3 -8 -12 -11 -22 -7 -14 5
-16 3 -11 -11 4 -9 3 -15 -2 -11 -5 3 -12 1 -15 -4 -8 -12 34 -26 43 -14 9 13
61 34 71 28 12 -8 41 6 39 19 -4 31 1 34 42 25 22 -5 44 -7 48 -4 5 2 17 -5
27 -18 10 -12 12 -16 4 -9 -16 14 -34 16 -26 3 4 -5 -4 -7 -16 -4 l-23 6 22
-24 c22 -22 23 -23 58 -6 36 17 46 43 20 53 -21 9 -9 23 15 17 15 -4 18 -11
13 -34 -6 -32 -3 -33 44 -20 21 6 35 5 42 -2 8 -8 14 -8 23 1 9 9 8 16 -6 31
-9 10 -20 35 -23 55 -7 46 -74 116 -110 116 -14 0 -42 -9 -62 -19 -118 -62
-186 -89 -198 -79 -14 11 -1 48 17 48 16 0 11 37 -6 44 -23 9 -34 7 -34 -4z
m297 -62 c-3 -8 -6 -5 -6 6 -1 11 2 17 5 13 3 -3 4 -12 1 -19z m81 -56 c2 -7
-2 -10 -12 -6 -9 3 -16 11 -16 16 0 13 23 5 28 -10z"/>
</g>
</svg>
