<?xml version="1.0" standalone="no"?>
<!DOCTYPE svg PUBLIC "-//W3C//DTD SVG 20010904//EN"
 "http://www.w3.org/TR/2001/REC-SVG-20010904/DTD/svg10.dtd">
<svg version="1.0" xmlns="http://www.w3.org/2000/svg"
 width="736.000000pt" height="1308.000000pt" viewBox="0 0 736.000000 1308.000000"
 preserveAspectRatio="xMidYMid meet">

<g transform="translate(0.000000,1308.000000) scale(0.100000,-0.100000)"
fill="#000000" stroke="none">
<path d="M0 6540 l0 -6540 3680 0 3680 0 0 6540 0 6540 -3680 0 -3680 0 0
-6540z m5230 203 c-17 -87 -33 -168 -35 -180 -5 -22 -3 -22 109 -25 l114 -3
-281 -183 c-154 -100 -282 -181 -283 -179 -2 2 12 82 31 177 19 95 35 177 35
181 0 5 -51 10 -112 11 l-113 3 280 182 c153 100 281 181 283 179 2 -3 -10
-75 -28 -163z m-2058 146 c108 -23 195 -89 235 -176 25 -56 23 -202 -4 -270
-44 -112 -123 -188 -242 -234 -44 -17 -79 -22 -161 -23 -98 -1 -110 1 -170 30
-113 54 -168 131 -178 250 -6 76 11 151 51 227 79 150 283 235 469 196z m-957
-199 c21 -104 42 -190 46 -190 3 0 59 86 124 190 l117 190 120 0 c97 0 117 -3
111 -13 -4 -8 -100 -161 -212 -341 l-203 -327 -116 3 -115 3 -73 325 c-40 179
-73 331 -74 338 0 9 30 12 118 12 l117 0 40 -190z m1585 177 c0 -7 -20 -114
-45 -237 -25 -123 -45 -230 -45 -237 0 -10 33 -13 150 -13 171 0 159 10 133
-105 l-16 -75 -269 0 c-147 0 -268 3 -268 8 0 4 30 157 66 340 l67 332 113 0
c88 0 114 -3 114 -13z m854 -54 c-26 -127 -11 -113 -124 -113 -55 0 -100 -1
-100 -3 0 -5 -89 -449 -95 -474 -5 -22 -9 -23 -120 -23 -63 0 -115 1 -115 3 0
5 89 449 95 475 5 22 4 22 -96 22 -100 0 -101 0 -96 23 3 12 11 52 18 90 l12
67 318 0 317 0 -14 -67z m706 -571 c-1 -44 -51 -57 -74 -19 -9 15 -7 22 12 37
27 22 62 12 62 -18z m-1730 -3326 c0 -2 -7 -7 -16 -10 -8 -3 -12 -2 -9 4 6 10
25 14 25 6z m-140 -61 c0 -5 -5 -3 -10 5 -5 8 -10 20 -10 25 0 6 5 3 10 -5 5
-8 10 -19 10 -25z m257 3 c-3 -7 -5 -2 -5 12 0 14 2 19 5 13 2 -7 2 -19 0 -25z
m-61 -46 c-17 -16 -18 -16 -5 5 7 12 15 20 18 17 3 -2 -3 -12 -13 -22z m-161
-2 c-3 -5 -12 -10 -18 -10 -7 0 -6 4 3 10 19 12 23 12 15 0z m-123 -172 c-5
-7 -12 -22 -15 -33 -5 -20 -5 -20 -6 1 0 11 4 25 11 32 16 16 23 15 10 0z
m225 -10 c-3 -8 -6 -5 -6 6 -1 11 2 17 5 13 3 -3 4 -12 1 -19z m360 -10 c-3
-7 -5 -2 -5 12 0 14 2 19 5 13 2 -7 2 -19 0 -25z m110 -30 c-2 -13 -4 -5 -4
17 -1 22 1 32 4 23 2 -10 2 -28 0 -40z m-600 10 c-3 -7 -5 -2 -5 12 0 14 2 19
5 13 2 -7 2 -19 0 -25z m-150 -15 c-3 -10 -5 -4 -5 12 0 17 2 24 5 18 2 -7 2
-21 0 -30z m824 10 c13 -16 12 -17 -3 -4 -17 13 -22 21 -14 21 2 0 10 -8 17
-17z m-184 -15 c-3 -8 -6 -5 -6 6 -1 11 2 17 5 13 3 -3 4 -12 1 -19z m-107 -8
c0 -5 -2 -10 -4 -10 -3 0 -8 5 -11 10 -3 6 -1 10 4 10 6 0 11 -4 11 -10z
m-183 -22 c-3 -8 -6 -5 -6 6 -1 11 2 17 5 13 3 -3 4 -12 1 -19z m-100 -24 c-3
-3 -12 -4 -19 -1 -8 3 -5 6 6 6 11 1 17 -2 13 -5z m-127 -214 c0 -5 -2 -10 -4
-10 -3 0 -8 5 -11 10 -3 6 -1 10 4 10 6 0 11 -4 11 -10z m-3 -52 c-3 -8 -6 -5
-6 6 -1 11 2 17 5 13 3 -3 4 -12 1 -19z m240 -30 c-3 -7 -5 -2 -5 12 0 14 2
19 5 13 2 -7 2 -19 0 -25z m100 0 c-3 -8 -6 -5 -6 6 -1 11 2 17 5 13 3 -3 4
-12 1 -19z m-340 -20 c-3 -8 -6 -5 -6 6 -1 11 2 17 5 13 3 -3 4 -12 1 -19z
m543 -13 c0 -5 -5 -3 -10 5 -5 8 -10 20 -10 25 0 6 5 3 10 -5 5 -8 10 -19 10
-25z"/>
<path d="M3000 6699 c-75 -30 -131 -142 -114 -228 20 -99 155 -134 238 -60 62
54 87 169 51 238 -26 52 -110 76 -175 50z"/>
<path d="M5305 6256 c-16 -12 -17 -16 -6 -30 15 -18 31 -21 31 -5 0 5 -4 7
-10 4 -5 -3 -10 1 -10 9 0 22 27 20 33 -1 4 -15 5 -15 6 -2 2 27 -23 41 -44
25z"/>
</g>
</svg>
